# xmcd CD database file
#
# Track frame offsets:
#	150
#	17337
#	28672
#	42392
#	55380
#	71907
#	83817
#	97082
#	110987
#	125595
#	143117
#	160595
#
# Disc length: 2329 seconds
#
# Revision: 0
# Processed by: cddbd v1.5.1PL0 Copyright (c) Steve Scherf et al.
# Submitted via: CDex 1.50
#
DISCID=a809170c
DTITLE=Various Artist - Carols of Christmas
DYEAR=1999
DGENRE=Jazz
TTITLE0=W.G. Snuffy Walden-Oh, Come, All Ye Faithful
TTITLE1=Liz Story-Once in Royal David's City
TTITLE2=Tuck Andress-Coventry Carol, What Child Is This
TTITLE3=Steve Lukather-O Tannenbaum
TTITLE4=Steve Morse-It Came Upon a Midnight Clear
TTITLE5=Jim Brickman-December Morning
TTITLE6=Robin Le Mesurier-Good King Wenceslas
TTITLE7=Loe Kottke-Accordion Bells
TTITLE8=Joan Armatrading-Angels from the Realms of Glory
TTITLE9=Steve Morse and Manual Barrueco-Carol of the Bells
TTITLE10=Liz Story-Simple Gifts
TTITLE11=Nightnoise-Hark the Herald Angels Sing,Angels We Have Heard on High
EXTD=YEAR: 1999
EXTT0=
EXTT1=
EXTT2=
EXTT3=
EXTT4=
EXTT5=
EXTT6=
EXTT7=
EXTT8=
EXTT9=
EXTT10=
EXTT11=
PLAYORDER=
